<svg id="Layer_1" data-name="Layer 1" xmlns="http://www.w3.org/2000/svg" width="216.35" height="99" viewBox="0 0 216.35 99"><defs><style>.cls-1{fill:#c87f21;}.cls-2{fill:#a21916;}.cls-3{fill:#272e59;}.cls-4{fill:#fff;}.cls-5{fill:#26758f;}</style></defs><path class="cls-1" d="M108.9,80.15h32.24c2.52,0,3.33.44,3.2,1.71-.27,2.66-3.18,4.55-7.18,6.1a65.63,65.63,0,0,1-17.69,3.66,108,108,0,0,1-31.13-1.46,36.8,36.8,0,0,1-11.29-3.91c-2.17-1.29-3.47-2.75-3.6-4.46-.09-1.19.73-1.65,3.09-1.65Z"/><path class="cls-2" d="M75.76,76.26a8.51,8.51,0,0,1-1.1-4.8V62.51a6.47,6.47,0,0,1,1.28-4.35,4.8,4.8,0,0,1,3.82-1.48A5.36,5.36,0,0,1,83,57.5a4.24,4.24,0,0,1,1.57,2.39,15.53,15.53,0,0,1,.43,4h-4V62.07a2.58,2.58,0,0,0-.21-1.16A.76.76,0,0,0,80,60.5c-.79,0-1.19.52-1.19,1.55V72.11A3.35,3.35,0,0,0,79,73.54a.86.86,0,0,0,.85.48.88.88,0,0,0,.85-.48,3.32,3.32,0,0,0,.24-1.43v-3H79.83V65.56h5.08V77.65H83.24l-.7-1.74a3.69,3.69,0,0,1-3.43,1.93A3.78,3.78,0,0,1,75.76,76.26Z"/><path class="cls-2" d="M86.56,56.88h6.38a3.61,3.61,0,0,1,2.36.69,3.37,3.37,0,0,1,1.12,1.93,14.6,14.6,0,0,1,.29,3.18,6.64,6.64,0,0,1-.46,2.76,2.6,2.6,0,0,1-1.6,1.38,1.94,1.94,0,0,1,1.37.94,4.17,4.17,0,0,1,.42,2l0,7.86H92.33V69.53c0-.58-.11-1-.34-1.11a2.28,2.28,0,0,0-1.23-.24v9.48H86.55V56.88Zm5.22,7.69q.87,0,.87-1.89a7.48,7.48,0,0,0-.07-1.23,1,1,0,0,0-.27-.57.83.83,0,0,0-.56-.16h-1v3.84h1Z"/><path class="cls-2" d="M97.9,77.65V56.88h4V77.65Z"/><path class="cls-2" d="M103.58,77.65V56.88h4.16V74.12H112v3.53Z"/><path class="cls-2" d="M113.18,77.65V56.88h4.16V74.12h4.28v3.53Z"/><path class="cls-2" d="M122.78,77.65V56.88h8.32v4H127v4h3.92v3.92H127v4.76h4.35v4Z"/><path class="cls-2" d="M132.75,77.65V56.88H137l1.91,9.94V56.88h4V77.65h-4.06l-2.08-10.4v10.4Z"/><path class="cls-3" d="M80.1,15.73a3,3,0,0,0-.91.65,2.06,2.06,0,0,0-.47.93,5.71,5.71,0,0,0,.65,3.31,2.45,2.45,0,0,0,.54.86,1.41,1.41,0,0,0,.18.17.31.31,0,0,1,.09.11,2.53,2.53,0,0,1-1.65.25,1.89,1.89,0,0,1-1.13-1.18,5.08,5.08,0,0,1-.44-2,4.52,4.52,0,0,1,.43-2,6,6,0,0,1,1.52-2,10.74,10.74,0,0,1,2.7-1.65c.21-.09.43-.17.65-.24l.49-.16,1.14-.37c.27-.09.57-.21.89-.35a5.88,5.88,0,0,0,1.57-1,6.83,6.83,0,0,0,.1.7,2.54,2.54,0,0,1-.2,1.56,2,2,0,0,1-.68.74,12.44,12.44,0,0,1-2.75.79l.84,4,2.7-1.19.3,1.51L84,20.49l1.55,7.62-2.67,1.17Z"/><path class="cls-3" d="M91.91,25.21a2.46,2.46,0,0,1-1.08-1.62,6,6,0,0,1-.18-1.32l-.5-10.35,2.79-1.16.54,11.15a2.06,2.06,0,0,0,.09.65.72.72,0,0,0,.33.51.89.89,0,0,0,.65,0,1.3,1.3,0,0,0,.53-.28,2,2,0,0,0,.41-.49,3,3,0,0,0,.38-1.43l.82-.22a7.12,7.12,0,0,1-.7,2.71,4,4,0,0,1-1.24,1.43,3.79,3.79,0,0,1-1.22.57A2,2,0,0,1,91.91,25.21Z"/><path class="cls-3" d="M101.33,28.58a2,2,0,0,1-.74-.3,1.64,1.64,0,0,1-.55-.56,1.93,1.93,0,0,1-.26-.83,2.4,2.4,0,0,1,.88-2.06,7.67,7.67,0,0,1,2.11-1.26l.14-1.11a3.4,3.4,0,0,1-1.19,1,3.16,3.16,0,0,1-1.12.32A2.08,2.08,0,0,1,99,23.4a2.51,2.51,0,0,1-.81-1.77,6.06,6.06,0,0,1,0-1.33L99,13.71l2.9-.29-.76,7a2.25,2.25,0,0,0,0,.52,1.33,1.33,0,0,0,.19.6.51.51,0,0,0,.5.23,1.27,1.27,0,0,0,.91-.57,3.26,3.26,0,0,0,.5-1.24l.75-6.72,2.9-.29-1.07,9.53a3.56,3.56,0,0,0,1.43-1.09,5.08,5.08,0,0,0,.82-2l.84-.08a6,6,0,0,1-1.34,2.92,4.64,4.64,0,0,1-1.85,1.2l-.16,1.48a4.46,4.46,0,0,1-1.25,2.94,3.48,3.48,0,0,1-2,.84A3.74,3.74,0,0,1,101.33,28.58Zm.87-2a3.51,3.51,0,0,0,.39-1.4l.06-.59a5.53,5.53,0,0,0-1.3.83,1.27,1.27,0,0,0-.5,1.07.66.66,0,0,0,.74.6C101.8,27.07,102,26.9,102.2,26.58Z"/><path class="cls-3" d="M110.68,22.53a2.31,2.31,0,0,1-.51-1.83,5.35,5.35,0,0,1,.18-1l2-6.73,2.9.23-2,6.73a4.31,4.31,0,0,0-.17.72.7.7,0,0,0,.13.51.68.68,0,0,0,.51.22,1.5,1.5,0,0,0,1-.26,3.68,3.68,0,0,0,.93-.86,8.33,8.33,0,0,0,.8-1.2,11.81,11.81,0,0,0,.67-1.44,14.75,14.75,0,0,0,.46-1.43,7.82,7.82,0,0,0,.23-1.25q0,.09-.3.12a1.4,1.4,0,0,1-.36,0,.59.59,0,0,1-.51-.38,1.24,1.24,0,0,1-.13-.7,1.06,1.06,0,0,1,.38-.77,1.31,1.31,0,0,1,1-.22,1.08,1.08,0,0,1,1,.62,2.32,2.32,0,0,1,.18,1.23,11.56,11.56,0,0,1-.29,1.8,13.62,13.62,0,0,1-.58,1.88A9.16,9.16,0,0,1,115.91,22a4.35,4.35,0,0,1-3.44,1.32A2.6,2.6,0,0,1,110.68,22.53Z"/><path class="cls-3" d="M121.06,23.5a3.22,3.22,0,0,1-.23-2.59,8,8,0,0,1,.46-1.31,10.16,10.16,0,0,1,.73-1.38,9.22,9.22,0,0,1,1.08-1.39,6.49,6.49,0,0,1,1.3-1.06,4.43,4.43,0,0,1,3.49-.51,2.4,2.4,0,0,1,1.6,1,1.84,1.84,0,0,1,.09,1.41,3.45,3.45,0,0,1-.76,1.47,4.24,4.24,0,0,1-1.33,1,5.31,5.31,0,0,1-1.68.52,5.59,5.59,0,0,1-1.78,0c-.12.32-.2.58-.25.77a1.92,1.92,0,0,0,0,1.41,1.47,1.47,0,0,0,1,.59,3.63,3.63,0,0,0,2.09-.08,5.07,5.07,0,0,0,.86-.39c.29-.16.62-.37,1-.64l.67.17a9,9,0,0,1-2.76,2,5.43,5.43,0,0,1-3.54.31A3.13,3.13,0,0,1,121.06,23.5Zm4.49-3.77a3.31,3.31,0,0,0,1.1-.5,3.68,3.68,0,0,0,.89-.87,3.14,3.14,0,0,0,.52-1.11,1.28,1.28,0,0,0,0-.63.4.4,0,0,0-.33-.3,1.08,1.08,0,0,0-.8.17,4.11,4.11,0,0,0-.93.77,10,10,0,0,0-.88,1.14,9.59,9.59,0,0,0-.76,1.37A2.49,2.49,0,0,0,125.55,19.73Z"/><path class="cls-3" d="M134.88,17.73l2.67,1.15-.73,1.05a7.68,7.68,0,0,1,1.38-.35,2.62,2.62,0,0,1,1.36.17,1.3,1.3,0,0,1,.78.84,1.66,1.66,0,0,1,.06.55,2,2,0,0,1-.15.57,1.5,1.5,0,0,1-.72.77,1.47,1.47,0,0,1-1.21,0,.92.92,0,0,1-.36-.25.58.58,0,0,1-.12-.33,1.23,1.23,0,0,1,0-.34,1.8,1.8,0,0,0,.06-.59.26.26,0,0,0-.16-.18,1.39,1.39,0,0,0-.73-.12,4.46,4.46,0,0,0-.92.25l-4.53,6.41-2.67-1.15Z"/><path class="cls-1" d="M108.89,54.28H76.65c-2.52,0-3.33-.88-3.2-3.43.27-5.32,3.18-9.11,7.18-12.2a39.4,39.4,0,0,1,17.69-7.32c10.63-1.87,21.05-1.18,31.13,2.92a28.19,28.19,0,0,1,11.29,7.83,14.39,14.39,0,0,1,3.6,8.91c.09,2.39-.73,3.29-3.09,3.29Zm8.31-13.81L119,38.79c-.34-.24-.66-.64-1-.68-.92-.1-2.21.8-2,1.35C116.13,39.8,116.62,40,117.2,40.47Zm-14.06-.61,1.24-1a11.14,11.14,0,0,0-2-1.17c-.25-.09-.72.45-1.1.7ZM93.68,38l-1.12,1.09a18.71,18.71,0,0,0,2.07,1.39c.16.08.61-.38.93-.59Zm11.73-3.26,1.48-1.05a4.94,4.94,0,0,0-1.67-.94c-.46-.06-1,.46-1.5.72Zm-10.66.81a2,2,0,0,0,3-1.17C96.62,33.78,95.57,34.16,94.75,35.55ZM108.29,38a2.18,2.18,0,0,0,2.78-.19,1,1,0,0,0-.2-.92A2.21,2.21,0,0,0,108.29,38Zm4.64-4.46a2.14,2.14,0,0,0,2.51,1.24,1,1,0,0,0,.28-.87A2.17,2.17,0,0,0,112.93,33.53Zm13.14,7.32a2.17,2.17,0,0,0-2.53-1.23.89.89,0,0,0-.31.8C123.64,41.23,125.2,41.43,126.07,40.85ZM89.64,37.79a2.08,2.08,0,0,0-2.9.21c-.1.16.18.82.35.84A2.21,2.21,0,0,0,89.64,37.79Zm39.74,1a2.38,2.38,0,0,0,2.47,1.35.73.73,0,0,0,.59-.33.69.69,0,0,0-.21-.64A2.3,2.3,0,0,0,129.38,38.82Zm-6.81-2.28c.64-.26,1.18-.46,1.68-.72.08,0,.06-.52,0-.53a5,5,0,0,0-1.75-.36c-.44,0-.83.51-1.24.79C121.69,36,122.11,36.26,122.57,36.54Z"/><path class="cls-4" d="M103.14,39.86l-1.88-1.48c.37-.25.84-.79,1.1-.7a11.14,11.14,0,0,1,2,1.17Z"/><path class="cls-4" d="M93.68,38c.73.74,1.3,1.32,1.88,1.89-.32.21-.76.67-.93.59a18.71,18.71,0,0,1-2.07-1.39Z"/><path class="cls-4" d="M94.75,35.55c.82-1.39,1.87-1.77,3-1.17A2,2,0,0,1,94.75,35.55Z"/><path class="cls-4" d="M89.64,37.79a2.21,2.21,0,0,1-2.56,1.05c-.16,0-.44-.68-.35-.84A2.1,2.1,0,0,1,89.64,37.79Z"/><path class="cls-5" d="M56.63,48.63V57.1H14.79S3.67,58.16,4.73,48.63Z"/><path class="cls-5" d="M63.88,59.57V68H22S10.91,69.1,12,59.57Z"/><path class="cls-5" d="M68.62,70.28v8.47H26.78s-11.12,1.06-10.06-8.47Z"/><path class="cls-5" d="M160.37,48.63V57.1h41.85s11.12,1.06,10.06-8.47Z"/><path class="cls-5" d="M153.12,59.57V68H195S206.09,69.1,205,59.57Z"/><path class="cls-5" d="M148.38,70.28v8.47h41.85s11.12,1.06,10.06-8.47Z"/></svg>